<?xml version="1.0" standalone="no"?><!DOCTYPE svg PUBLIC "-//W3C//DTD SVG 1.1//EN" "http://www.w3.org/Graphics/SVG/1.1/DTD/svg11.dtd"><svg t="1580976673509" class="icon" viewBox="0 0 1024 1024" version="1.1" xmlns="http://www.w3.org/2000/svg" p-id="2123" xmlns:xlink="http://www.w3.org/1999/xlink" width="200" height="200"><defs><style type="text/css"></style></defs><path d="M853.32992 102.4H170.67008C133.13024 102.4 102.4 133.13024 102.4 170.67008v682.65984C102.4 890.86976 133.13024 921.6 170.67008 921.6h682.65984C890.86976 921.6 921.6 890.86976 921.6 853.32992V170.67008C921.6 133.13024 890.86976 102.4 853.32992 102.4zM819.2 512c0 11.53024-0.768 22.92736-1.9968 34.12992C800.2048 699.72992 670.12608 819.2 512 819.2c-169.66656 0-307.2-137.53344-307.2-307.2s137.53344-307.2 307.2-307.2c84.82816 0 161.62816 34.39616 217.23136 89.99936l-48.26112 48.27136A238.1824 238.1824 0 0 0 512 273.07008c-131.93216 0-238.92992 106.99776-238.92992 238.92992S380.06784 750.92992 512 750.92992c120.29952 0 219.5968-89.05728 236.19584-204.8H512v-68.25984h307.2V512z" p-id="2124"></path></svg>